<?xml version='1.0' encoding='utf-8'?>
<svg xmlns="http://www.w3.org/2000/svg" xmlns:xlink="http://www.w3.org/1999/xlink" width="1200" height="660" viewBox="0 0 1200 660" role="img" aria-labelledby="title desc">
  <title id="title">JAX-FEM4Geo</title>
  <desc id="desc">可微岩土有限元：三轴试样示意、Drucker–Prager 材料响应与仓库已有应力应变图。</desc>
  <defs>
    <clipPath id="canvas">
      <rect width="1200" height="660" rx="26" />
    </clipPath>
  </defs>
  <g clip-path="url(#canvas)">
    <rect x="0" y="0" width="1200" height="660" rx="0" fill="#0F2433" />
    <text x="48" y="44" font-family="Menlo, Consolas, monospace" font-size="18" font-weight="600" fill="#83CBC5">DIFFERENTIABLE GEOMECHANICS</text>
    <text x="45" y="117" font-family="-apple-system, BlinkMacSystemFont, PingFang SC, Hiragino Sans, sans-serif" font-size="74" font-weight="600" fill="#ECF1EA">JAX-FEM4Geo</text>
    <text x="51" y="164" font-family="-apple-system, BlinkMacSystemFont, PingFang SC, Hiragino Sans, sans-serif" font-size="30" font-weight="400" fill="#A4B6BE">从材料本构，到可微有限元。</text>
    <text x="1129" y="48" font-family="Georgia, Songti SC, serif" font-size="23" font-weight="400" fill="#ECF1EA" text-anchor="end">Drucker–Prager</text>
    <path d="M49 189 H1151" fill="none" stroke="#385461" stroke-width="1" stroke-linecap="round" stroke-linejoin="round" />
    <path d="M211 302 A99 31 0 0 1 409 302 V492 A99 31 0 0 1 211 492 Z" fill="#284554" stroke="#94BFC5" stroke-width="2" />
    <ellipse cx="310" cy="302" rx="99" ry="31" fill="none" stroke="#719EA8" stroke-width="1.2" />
    <ellipse cx="310" cy="340" rx="99" ry="31" fill="none" stroke="#719EA8" stroke-width="1.2" />
    <ellipse cx="310" cy="378" rx="99" ry="31" fill="none" stroke="#719EA8" stroke-width="1.2" />
    <ellipse cx="310" cy="416" rx="99" ry="31" fill="none" stroke="#719EA8" stroke-width="1.2" />
    <ellipse cx="310" cy="454" rx="99" ry="31" fill="none" stroke="#719EA8" stroke-width="1.2" />
    <ellipse cx="310" cy="492" rx="99" ry="31" fill="none" stroke="#719EA8" stroke-width="1.2" />
    <path d="M380.00 323.92 V513.92" fill="none" stroke="#719EA8" stroke-width="1.2" stroke-linecap="round" stroke-linejoin="round" />
    <path d="M310.00 333.00 V523.00" fill="none" stroke="#719EA8" stroke-width="1.2" stroke-linecap="round" stroke-linejoin="round" />
    <path d="M240.00 323.92 V513.92" fill="none" stroke="#719EA8" stroke-width="1.2" stroke-linecap="round" stroke-linejoin="round" />
    <path d="M211.00 302.00 V492.00" fill="none" stroke="#719EA8" stroke-width="1.2" stroke-linecap="round" stroke-linejoin="round" />
    <path d="M240.00 280.08 V470.08" fill="none" stroke="#719EA8" stroke-width="1.2" stroke-linecap="round" stroke-linejoin="round" />
    <path d="M310.00 271.00 V461.00" fill="none" stroke="#719EA8" stroke-width="1.2" stroke-linecap="round" stroke-linejoin="round" />
    <path d="M380.00 280.08 V470.08" fill="none" stroke="#719EA8" stroke-width="1.2" stroke-linecap="round" stroke-linejoin="round" />
    <ellipse cx="310" cy="302" rx="99" ry="31" fill="#395B68" stroke="#BED9D7" stroke-width="2" />
    <rect x="206" y="259" width="208" height="17" rx="3" fill="#C5D6CC" />
    <rect x="206" y="531" width="208" height="17" rx="3" fill="#C5D6CC" />
    <path d="M245 224 L245 253" fill="none" stroke="#83CBC5" stroke-width="2.5" stroke-linecap="round" stroke-linejoin="round" />
    <g transform="translate(245 253) rotate(90.0)">
      <path d="M-10 -5 L0 0 L-10 5" fill="none" stroke="#83CBC5" stroke-width="2.5" stroke-linecap="round" stroke-linejoin="round" />
    </g>
    <path d="M310 224 L310 253" fill="none" stroke="#83CBC5" stroke-width="2.5" stroke-linecap="round" stroke-linejoin="round" />
    <g transform="translate(310 253) rotate(90.0)">
      <path d="M-10 -5 L0 0 L-10 5" fill="none" stroke="#83CBC5" stroke-width="2.5" stroke-linecap="round" stroke-linejoin="round" />
    </g>
    <path d="M375 224 L375 253" fill="none" stroke="#83CBC5" stroke-width="2.5" stroke-linecap="round" stroke-linejoin="round" />
    <g transform="translate(375 253) rotate(90.0)">
      <path d="M-10 -5 L0 0 L-10 5" fill="none" stroke="#83CBC5" stroke-width="2.5" stroke-linecap="round" stroke-linejoin="round" />
    </g>
    <path d="M160 367 L198 367" fill="none" stroke="#83CBC5" stroke-width="2" stroke-linecap="round" stroke-linejoin="round" />
    <g transform="translate(198 367) rotate(0.0)">
      <path d="M-10 -5 L0 0 L-10 5" fill="none" stroke="#83CBC5" stroke-width="2" stroke-linecap="round" stroke-linejoin="round" />
    </g>
    <path d="M460 367 L421 367" fill="none" stroke="#83CBC5" stroke-width="2" stroke-linecap="round" stroke-linejoin="round" />
    <g transform="translate(421 367) rotate(180.0)">
      <path d="M-10 -5 L0 0 L-10 5" fill="none" stroke="#83CBC5" stroke-width="2" stroke-linecap="round" stroke-linejoin="round" />
    </g>
    <path d="M160 419 L198 419" fill="none" stroke="#83CBC5" stroke-width="2" stroke-linecap="round" stroke-linejoin="round" />
    <g transform="translate(198 419) rotate(0.0)">
      <path d="M-10 -5 L0 0 L-10 5" fill="none" stroke="#83CBC5" stroke-width="2" stroke-linecap="round" stroke-linejoin="round" />
    </g>
    <path d="M460 419 L421 419" fill="none" stroke="#83CBC5" stroke-width="2" stroke-linecap="round" stroke-linejoin="round" />
    <g transform="translate(421 419) rotate(180.0)">
      <path d="M-10 -5 L0 0 L-10 5" fill="none" stroke="#83CBC5" stroke-width="2" stroke-linecap="round" stroke-linejoin="round" />
    </g>
    <path d="M160 471 L198 471" fill="none" stroke="#83CBC5" stroke-width="2" stroke-linecap="round" stroke-linejoin="round" />
    <g transform="translate(198 471) rotate(0.0)">
      <path d="M-10 -5 L0 0 L-10 5" fill="none" stroke="#83CBC5" stroke-width="2" stroke-linecap="round" stroke-linejoin="round" />
    </g>
    <path d="M460 471 L421 471" fill="none" stroke="#83CBC5" stroke-width="2" stroke-linecap="round" stroke-linejoin="round" />
    <g transform="translate(421 471) rotate(180.0)">
      <path d="M-10 -5 L0 0 L-10 5" fill="none" stroke="#83CBC5" stroke-width="2" stroke-linecap="round" stroke-linejoin="round" />
    </g>
    <text x="63" y="365" font-family="-apple-system, BlinkMacSystemFont, PingFang SC, Hiragino Sans, sans-serif" font-size="22" font-weight="400" fill="#A4B6BE">围压</text>
    <text x="310" y="589" font-family="-apple-system, BlinkMacSystemFont, PingFang SC, Hiragino Sans, sans-serif" font-size="20" font-weight="400" fill="#A4B6BE" text-anchor="middle">三轴试样 / 几何示意</text>
    <text x="555" y="236" font-family="-apple-system, BlinkMacSystemFont, PingFang SC, Hiragino Sans, sans-serif" font-size="23" font-weight="500" fill="#ECF1EA">已有应力—应变记录</text>
    <rect x="545" y="256" width="603" height="356" rx="5" fill="#EDF1EC" />
    <image x="554" y="265" width="585" height="329" preserveAspectRatio="xMidYMid meet" xlink:href="../../../docs/images/stress_strain_comparison.png" />
    <text x="1144" y="640" font-family="-apple-system, BlinkMacSystemFont, PingFang SC, Hiragino Sans, sans-serif" font-size="17" font-weight="400" fill="#A4B6BE" text-anchor="end">仓库图表 · 本轮未重新运行实验</text>
    <g id="material-response">
      <path d="M452 314 L522 314" fill="none" stroke="#83CBC5" stroke-width="3" stroke-linecap="round" stroke-linejoin="round" />
      <g transform="translate(522 314) rotate(0.0)">
        <path d="M-10 -5 L0 0 L-10 5" fill="none" stroke="#83CBC5" stroke-width="3" stroke-linecap="round" stroke-linejoin="round" />
      </g>
      <text x="454" y="295" font-family="Georgia, Songti SC, serif" font-size="23" font-weight="400" fill="#83CBC5">σ(ε)</text>
    </g>
    <g id="material-gradient">
      <path d="M531 611 H469 V548" fill="none" stroke="#83CBC5" stroke-width="2" stroke-linecap="round" stroke-linejoin="round" />
      <path d="M463 558 L469 548 L475 558" fill="none" stroke="#83CBC5" stroke-width="2" stroke-linecap="round" stroke-linejoin="round" />
      <text x="397" y="639" font-family="Georgia, Songti SC, serif" font-size="27" font-weight="400" fill="#83CBC5">∂σ / ∂ε</text>
    </g>
  </g>
</svg>