$MeshFormat
2.2 0 8
$EndMeshFormat
$Nodes
574
1 0 0 0
2 -1 1 0
3 1 1 0
4 1 -1 0
5 -1 -1 0
6 -1.767766952966369 1.767766952966369 0
7 1.767766952966369 1.767766952966369 0
8 1.767766952966369 -1.767766952966369 0
9 -1.767766952966369 -1.767766952966369 0
10 -1 1 10
11 1 1 10
12 1 -1 10
13 -1 -1 10
14 1.767766952966369 1.767766952966369 10
15 0 0 10
16 -1.767766952966369 1.767766952966369 10
17 1.767766952966369 -1.767766952966369 10
18 -1.767766952966369 -1.767766952966369 10
19 -0.3333333333351818 1 0
20 0.3333333333314854 1 0
21 1 0.3333333333351818 0
22 1 -0.3333333333314854 0
23 0.3333333333351818 -1 0
24 -0.3333333333314854 -1 0
25 -1 -0.3333333333351818 0
26 -1 0.3333333333314854 0
27 -1.255922317654907 1.255922317654907 0
28 -1.51184463530985 1.51184463530985 0
29 1.255922317654907 1.255922317654907 0
30 1.51184463530985 1.51184463530985 0
31 1.255922317654907 -1.255922317654907 0
32 1.51184463530985 -1.51184463530985 0
33 -1.255922317654907 -1.255922317654907 0
34 -1.51184463530985 -1.51184463530985 0
35 -0.6470476087835569 2.414814566787165 0
36 0.6470476166624574 2.41481456467602 0
37 2.414814566598285 0.6470476094884637 0
38 2.414814564704614 -0.6470476165557404 0
39 0.6470476091088079 -2.414814566700014 0
40 -0.6470476165340323 -2.414814564710431 0
41 -2.414814566648776 -0.647047609300029 0
42 -2.414814564784292 0.6470476162583793 0
43 -0.3333333333351818 1 10
44 0.3333333333314854 1 10
45 1 0.3333333333351818 10
46 1 -0.3333333333314854 10
47 0.3333333333351818 -1 10
48 -0.3333333333314854 -1 10
49 -1 -0.3333333333351818 10
50 -1 0.3333333333314854 10
51 -1 1 1
52 -1 1 2
53 -1 1 3
54 -1 1 4
55 -1 1 5
56 -1 1 6
57 -1 1 7
58 -1 1 8
59 -1 1 9
60 1 1 1
61 1 1 2
62 1 1 3
63 1 1 4
64 1 1 5
65 1 1 6
66 1 1 7
67 1 1 8
68 1 1 9
69 1 -1 1
70 1 -1 2
71 1 -1 3
72 1 -1 4
73 1 -1 5
74 1 -1 6
75 1 -1 7
76 1 -1 8
77 1 -1 9
78 -1 -1 1
79 -1 -1 2
80 -1 -1 3
81 -1 -1 4
82 -1 -1 5
83 -1 -1 6
84 -1 -1 7
85 -1 -1 8
86 -1 -1 9
87 1.255922317654907 1.255922317654907 10
88 1.51184463530985 1.51184463530985 10
89 0.6470476166624574 2.41481456467602 10
90 -0.6470476087835569 2.414814566787165 10
91 -1.51184463530985 1.51184463530985 10
92 -1.255922317654907 1.255922317654907 10
93 1.767766952966369 1.767766952966369 1
94 1.767766952966369 1.767766952966369 2
95 1.767766952966369 1.767766952966369 3
96 1.767766952966369 1.767766952966369 4
97 1.767766952966369 1.767766952966369 5
98 1.767766952966369 1.767766952966369 6
99 1.767766952966369 1.767766952966369 7
100 1.767766952966369 1.767766952966369 8
101 1.767766952966369 1.767766952966369 9
102 -1.767766952966369 1.767766952966369 1
103 -1.767766952966369 1.767766952966369 2
104 -1.767766952966369 1.767766952966369 3
105 -1.767766952966369 1.767766952966369 4
106 -1.767766952966369 1.767766952966369 5
107 -1.767766952966369 1.767766952966369 6
108 -1.767766952966369 1.767766952966369 7
109 -1.767766952966369 1.767766952966369 8
110 -1.767766952966369 1.767766952966369 9
111 1.255922317654907 -1.255922317654907 10
112 1.51184463530985 -1.51184463530985 10
113 2.414814564704614 -0.6470476165557404 10
114 2.414814566598285 0.6470476094884637 10
115 1.767766952966369 -1.767766952966369 1
116 1.767766952966369 -1.767766952966369 2
117 1.767766952966369 -1.767766952966369 3
118 1.767766952966369 -1.767766952966369 4
119 1.767766952966369 -1.767766952966369 5
120 1.767766952966369 -1.767766952966369 6
121 1.767766952966369 -1.767766952966369 7
122 1.767766952966369 -1.767766952966369 8
123 1.767766952966369 -1.767766952966369 9
124 -1.255922317654907 -1.255922317654907 10
125 -1.51184463530985 -1.51184463530985 10
126 -0.6470476165340323 -2.414814564710431 10
127 0.6470476091088079 -2.414814566700014 10
128 -1.767766952966369 -1.767766952966369 1
129 -1.767766952966369 -1.767766952966369 2
130 -1.767766952966369 -1.767766952966369 3
131 -1.767766952966369 -1.767766952966369 4
132 -1.767766952966369 -1.767766952966369 5
133 -1.767766952966369 -1.767766952966369 6
134 -1.767766952966369 -1.767766952966369 7
135 -1.767766952966369 -1.767766952966369 8
136 -1.767766952966369 -1.767766952966369 9
137 -2.414814564784292 0.6470476162583793 10
138 -2.414814566648776 -0.647047609300029 10
139 -0.3333333333339498 0.3333333333327175 0
140 -0.3333333333327175 -0.3333333333339497 0
141 0.3333333333327176 0.3333333333339496 0
142 0.3333333333339497 -0.3333333333327175 0
143 -0.4379047584844156 1.471604855594709 0
144 -0.5424761836336641 1.943209711189485 0
145 0.4379047611082514 1.471604854890994 0
146 0.5424761888850324 1.943209709782054 0
147 1.471604855531749 0.4379047587193846 0
148 1.943209711063565 0.5424761841036021 0
149 1.471604854900525 -0.4379047610726793 0
150 1.943209709801118 -0.5424761888138877 0
151 0.4379047585928325 -1.471604855565659 0
152 0.5424761838504981 -1.943209711131384 0
153 -0.4379047610654431 -1.471604854902464 0
154 -0.5424761887994158 -1.943209709804995 0
155 -1.471604855548579 -0.437904758656573 0
156 -1.943209711097226 -0.5424761839779788 0
157 -1.471604854927085 0.4379047609735587 0
158 -1.943209709854236 0.5424761886156469 0
159 -0.3333333333351818 1 1
160 -0.3333333333351818 1 2
161 -0.3333333333351818 1 3
162 -0.3333333333351818 1 4
163 -0.3333333333351818 1 5
164 -0.3333333333351818 1 6
165 -0.3333333333351818 1 7
166 -0.3333333333351818 1 8
167 -0.3333333333351818 1 9
168 0.3333333333314854 1 1
169 0.3333333333314854 1 2
170 0.3333333333314854 1 3
171 0.3333333333314854 1 4
172 0.3333333333314854 1 5
173 0.3333333333314854 1 6
174 0.3333333333314854 1 7
175 0.3333333333314854 1 8
176 0.3333333333314854 1 9
177 1 0.3333333333351818 1
178 1 0.3333333333351818 2
179 1 0.3333333333351818 3
180 1 0.3333333333351818 4
181 1 0.3333333333351818 5
182 1 0.3333333333351818 6
183 1 0.3333333333351818 7
184 1 0.3333333333351818 8
185 1 0.3333333333351818 9
186 1 -0.3333333333314854 1
187 1 -0.3333333333314854 2
188 1 -0.3333333333314854 3
189 1 -0.3333333333314854 4
190 1 -0.3333333333314854 5
191 1 -0.3333333333314854 6
192 1 -0.3333333333314854 7
193 1 -0.3333333333314854 8
194 1 -0.3333333333314854 9
195 0.3333333333351818 -1 1
196 0.3333333333351818 -1 2
197 0.3333333333351818 -1 3
198 0.3333333333351818 -1 4
199 0.3333333333351818 -1 5
200 0.3333333333351818 -1 6
201 0.3333333333351818 -1 7
202 0.3333333333351818 -1 8
203 0.3333333333351818 -1 9
204 -0.3333333333314854 -1 1
205 -0.3333333333314854 -1 2
206 -0.3333333333314854 -1 3
207 -0.3333333333314854 -1 4
208 -0.3333333333314854 -1 5
209 -0.3333333333314854 -1 6
210 -0.3333333333314854 -1 7
211 -0.3333333333314854 -1 8
212 -0.3333333333314854 -1 9
213 -1 -0.3333333333351818 1
214 -1 -0.3333333333351818 2
215 -1 -0.3333333333351818 3
216 -1 -0.3333333333351818 4
217 -1 -0.3333333333351818 5
218 -1 -0.3333333333351818 6
219 -1 -0.3333333333351818 7
220 -1 -0.3333333333351818 8
221 -1 -0.3333333333351818 9
222 -1 0.3333333333314854 1
223 -1 0.3333333333314854 2
224 -1 0.3333333333314854 3
225 -1 0.3333333333314854 4
226 -1 0.3333333333314854 5
227 -1 0.3333333333314854 6
228 -1 0.3333333333314854 7
229 -1 0.3333333333314854 8
230 -1 0.3333333333314854 9
231 -0.3333333333339498 0.3333333333327175 10
232 -0.3333333333327175 -0.3333333333339497 10
233 0.3333333333327176 0.3333333333339496 10
234 0.3333333333339497 -0.3333333333327175 10
235 1.255922317654907 1.255922317654907 1
236 1.255922317654907 1.255922317654907 2
237 1.255922317654907 1.255922317654907 3
238 1.255922317654907 1.255922317654907 4
239 1.255922317654907 1.255922317654907 5
240 1.255922317654907 1.255922317654907 6
241 1.255922317654907 1.255922317654907 7
242 1.255922317654907 1.255922317654907 8
243 1.255922317654907 1.255922317654907 9
244 1.51184463530985 1.51184463530985 1
245 1.51184463530985 1.51184463530985 2
246 1.51184463530985 1.51184463530985 3
247 1.51184463530985 1.51184463530985 4
248 1.51184463530985 1.51184463530985 5
249 1.51184463530985 1.51184463530985 6
250 1.51184463530985 1.51184463530985 7
251 1.51184463530985 1.51184463530985 8
252 1.51184463530985 1.51184463530985 9
253 -0.6470476087835569 2.414814566787165 1
254 -0.6470476087835569 2.414814566787165 2
255 -0.6470476087835569 2.414814566787165 3
256 -0.6470476087835569 2.414814566787165 4
257 -0.6470476087835569 2.414814566787165 5
258 -0.6470476087835569 2.414814566787165 6
259 -0.6470476087835569 2.414814566787165 7
260 -0.6470476087835569 2.414814566787165 8
261 -0.6470476087835569 2.414814566787165 9
262 0.6470476166624574 2.41481456467602 1
263 0.6470476166624574 2.41481456467602 2
264 0.6470476166624574 2.41481456467602 3
265 0.6470476166624574 2.41481456467602 4
266 0.6470476166624574 2.41481456467602 5
267 0.6470476166624574 2.41481456467602 6
268 0.6470476166624574 2.41481456467602 7
269 0.6470476166624574 2.41481456467602 8
270 0.6470476166624574 2.41481456467602 9
271 -1.255922317654907 1.255922317654907 1
272 -1.255922317654907 1.255922317654907 2
273 -1.255922317654907 1.255922317654907 3
274 -1.255922317654907 1.255922317654907 4
275 -1.255922317654907 1.255922317654907 5
276 -1.255922317654907 1.255922317654907 6
277 -1.255922317654907 1.255922317654907 7
278 -1.255922317654907 1.255922317654907 8
279 -1.255922317654907 1.255922317654907 9
280 -1.51184463530985 1.51184463530985 1
281 -1.51184463530985 1.51184463530985 2
282 -1.51184463530985 1.51184463530985 3
283 -1.51184463530985 1.51184463530985 4
284 -1.51184463530985 1.51184463530985 5
285 -1.51184463530985 1.51184463530985 6
286 -1.51184463530985 1.51184463530985 7
287 -1.51184463530985 1.51184463530985 8
288 -1.51184463530985 1.51184463530985 9
289 -0.4379047584844156 1.471604855594709 10
290 -0.5424761836336641 1.943209711189485 10
291 0.4379047611082514 1.471604854890994 10
292 0.5424761888850324 1.943209709782054 10
293 1.255922317654907 -1.255922317654907 1
294 1.255922317654907 -1.255922317654907 2
295 1.255922317654907 -1.255922317654907 3
296 1.255922317654907 -1.255922317654907 4
297 1.255922317654907 -1.255922317654907 5
298 1.255922317654907 -1.255922317654907 6
299 1.255922317654907 -1.255922317654907 7
300 1.255922317654907 -1.255922317654907 8
301 1.255922317654907 -1.255922317654907 9
302 1.51184463530985 -1.51184463530985 1
303 1.51184463530985 -1.51184463530985 2
304 1.51184463530985 -1.51184463530985 3
305 1.51184463530985 -1.51184463530985 4
306 1.51184463530985 -1.51184463530985 5
307 1.51184463530985 -1.51184463530985 6
308 1.51184463530985 -1.51184463530985 7
309 1.51184463530985 -1.51184463530985 8
310 1.51184463530985 -1.51184463530985 9
311 2.414814566598285 0.6470476094884637 1
312 2.414814566598285 0.6470476094884637 2
313 2.414814566598285 0.6470476094884637 3
314 2.414814566598285 0.6470476094884637 4
315 2.414814566598285 0.6470476094884637 5
316 2.414814566598285 0.6470476094884637 6
317 2.414814566598285 0.6470476094884637 7
318 2.414814566598285 0.6470476094884637 8
319 2.414814566598285 0.6470476094884637 9
320 2.414814564704614 -0.6470476165557404 1
321 2.414814564704614 -0.6470476165557404 2
322 2.414814564704614 -0.6470476165557404 3
323 2.414814564704614 -0.6470476165557404 4
324 2.414814564704614 -0.6470476165557404 5
325 2.414814564704614 -0.6470476165557404 6
326 2.414814564704614 -0.6470476165557404 7
327 2.414814564704614 -0.6470476165557404 8
328 2.414814564704614 -0.6470476165557404 9
329 1.471604855531749 0.4379047587193846 10
330 1.943209711063565 0.5424761841036021 10
331 1.471604854900525 -0.4379047610726793 10
332 1.943209709801118 -0.5424761888138877 10
333 -1.255922317654907 -1.255922317654907 1
334 -1.255922317654907 -1.255922317654907 2
335 -1.255922317654907 -1.255922317654907 3
336 -1.255922317654907 -1.255922317654907 4
337 -1.255922317654907 -1.255922317654907 5
338 -1.255922317654907 -1.255922317654907 6
339 -1.255922317654907 -1.255922317654907 7
340 -1.255922317654907 -1.255922317654907 8
341 -1.255922317654907 -1.255922317654907 9
342 -1.51184463530985 -1.51184463530985 1
343 -1.51184463530985 -1.51184463530985 2
344 -1.51184463530985 -1.51184463530985 3
345 -1.51184463530985 -1.51184463530985 4
346 -1.51184463530985 -1.51184463530985 5
347 -1.51184463530985 -1.51184463530985 6
348 -1.51184463530985 -1.51184463530985 7
349 -1.51184463530985 -1.51184463530985 8
350 -1.51184463530985 -1.51184463530985 9
351 0.6470476091088079 -2.414814566700014 1
352 0.6470476091088079 -2.414814566700014 2
353 0.6470476091088079 -2.414814566700014 3
354 0.6470476091088079 -2.414814566700014 4
355 0.6470476091088079 -2.414814566700014 5
356 0.6470476091088079 -2.414814566700014 6
357 0.6470476091088079 -2.414814566700014 7
358 0.6470476091088079 -2.414814566700014 8
359 0.6470476091088079 -2.414814566700014 9
360 -0.6470476165340323 -2.414814564710431 1
361 -0.6470476165340323 -2.414814564710431 2
362 -0.6470476165340323 -2.414814564710431 3
363 -0.6470476165340323 -2.414814564710431 4
364 -0.6470476165340323 -2.414814564710431 5
365 -0.6470476165340323 -2.414814564710431 6
366 -0.6470476165340323 -2.414814564710431 7
367 -0.6470476165340323 -2.414814564710431 8
368 -0.6470476165340323 -2.414814564710431 9
369 0.4379047585928325 -1.471604855565659 10
370 0.5424761838504981 -1.943209711131384 10
371 -0.4379047610654431 -1.471604854902464 10
372 -0.5424761887994158 -1.943209709804995 10
373 -2.414814566648776 -0.647047609300029 1
374 -2.414814566648776 -0.647047609300029 2
375 -2.414814566648776 -0.647047609300029 3
376 -2.414814566648776 -0.647047609300029 4
377 -2.414814566648776 -0.647047609300029 5
378 -2.414814566648776 -0.647047609300029 6
379 -2.414814566648776 -0.647047609300029 7
380 -2.414814566648776 -0.647047609300029 8
381 -2.414814566648776 -0.647047609300029 9
382 -2.414814564784292 0.6470476162583793 1
383 -2.414814564784292 0.6470476162583793 2
384 -2.414814564784292 0.6470476162583793 3
385 -2.414814564784292 0.6470476162583793 4
386 -2.414814564784292 0.6470476162583793 5
387 -2.414814564784292 0.6470476162583793 6
388 -2.414814564784292 0.6470476162583793 7
389 -2.414814564784292 0.6470476162583793 8
390 -2.414814564784292 0.6470476162583793 9
391 -1.471604855548579 -0.437904758656573 10
392 -1.943209711097226 -0.5424761839779788 10
393 -1.471604854927085 0.4379047609735587 10
394 -1.943209709854236 0.5424761886156469 10
395 -0.3333333333339498 0.3333333333327175 1
396 -0.3333333333339498 0.3333333333327175 2
397 -0.3333333333339498 0.3333333333327175 3
398 -0.3333333333339498 0.3333333333327175 4
399 -0.3333333333339498 0.3333333333327175 5
400 -0.3333333333339498 0.3333333333327175 6
401 -0.3333333333339498 0.3333333333327175 7
402 -0.3333333333339498 0.3333333333327175 8
403 -0.3333333333339498 0.3333333333327175 9
404 -0.3333333333327175 -0.3333333333339497 1
405 -0.3333333333327175 -0.3333333333339497 2
406 -0.3333333333327175 -0.3333333333339497 3
407 -0.3333333333327175 -0.3333333333339497 4
408 -0.3333333333327175 -0.3333333333339497 5
409 -0.3333333333327175 -0.3333333333339497 6
410 -0.3333333333327175 -0.3333333333339497 7
411 -0.3333333333327175 -0.3333333333339497 8
412 -0.3333333333327175 -0.3333333333339497 9
413 0.3333333333327176 0.3333333333339496 1
414 0.3333333333327176 0.3333333333339496 2
415 0.3333333333327176 0.3333333333339496 3
416 0.3333333333327176 0.3333333333339496 4
417 0.3333333333327176 0.3333333333339496 5
418 0.3333333333327176 0.3333333333339496 6
419 0.3333333333327176 0.3333333333339496 7
420 0.3333333333327176 0.3333333333339496 8
421 0.3333333333327176 0.3333333333339496 9
422 0.3333333333339497 -0.3333333333327175 1
423 0.3333333333339497 -0.3333333333327175 2
424 0.3333333333339497 -0.3333333333327175 3
425 0.3333333333339497 -0.3333333333327175 4
426 0.3333333333339497 -0.3333333333327175 5
427 0.3333333333339497 -0.3333333333327175 6
428 0.3333333333339497 -0.3333333333327175 7
429 0.3333333333339497 -0.3333333333327175 8
430 0.3333333333339497 -0.3333333333327175 9
431 -0.4379047584844156 1.471604855594709 1
432 -0.4379047584844156 1.471604855594709 2
433 -0.4379047584844156 1.471604855594709 3
434 -0.4379047584844156 1.471604855594709 4
435 -0.4379047584844156 1.471604855594709 5
436 -0.4379047584844156 1.471604855594709 6
437 -0.4379047584844156 1.471604855594709 7
438 -0.4379047584844156 1.471604855594709 8
439 -0.4379047584844156 1.471604855594709 9
440 -0.5424761836336641 1.943209711189485 1
441 -0.5424761836336641 1.943209711189485 2
442 -0.5424761836336641 1.943209711189485 3
443 -0.5424761836336641 1.943209711189485 4
444 -0.5424761836336641 1.943209711189485 5
445 -0.5424761836336641 1.943209711189485 6
446 -0.5424761836336641 1.943209711189485 7
447 -0.5424761836336641 1.943209711189485 8
448 -0.5424761836336641 1.943209711189485 9
449 0.4379047611082514 1.471604854890994 1
450 0.4379047611082514 1.471604854890994 2
451 0.4379047611082514 1.471604854890994 3
452 0.4379047611082514 1.471604854890994 4
453 0.4379047611082514 1.471604854890994 5
454 0.4379047611082514 1.471604854890994 6
455 0.4379047611082514 1.471604854890994 7
456 0.4379047611082514 1.471604854890994 8
457 0.4379047611082514 1.471604854890994 9
458 0.5424761888850324 1.943209709782054 1
459 0.5424761888850324 1.943209709782054 2
460 0.5424761888850324 1.943209709782054 3
461 0.5424761888850324 1.943209709782054 4
462 0.5424761888850324 1.943209709782054 5
463 0.5424761888850324 1.943209709782054 6
464 0.5424761888850324 1.943209709782054 7
465 0.5424761888850324 1.943209709782054 8
466 0.5424761888850324 1.943209709782054 9
467 1.471604855531749 0.4379047587193846 1
468 1.471604855531749 0.4379047587193846 2
469 1.471604855531749 0.4379047587193846 3
470 1.471604855531749 0.4379047587193846 4
471 1.471604855531749 0.4379047587193846 5
472 1.471604855531749 0.4379047587193846 6
473 1.471604855531749 0.4379047587193846 7
474 1.471604855531749 0.4379047587193846 8
475 1.471604855531749 0.4379047587193846 9
476 1.943209711063565 0.5424761841036021 1
477 1.943209711063565 0.5424761841036021 2
478 1.943209711063565 0.5424761841036021 3
479 1.943209711063565 0.5424761841036021 4
480 1.943209711063565 0.5424761841036021 5
481 1.943209711063565 0.5424761841036021 6
482 1.943209711063565 0.5424761841036021 7
483 1.943209711063565 0.5424761841036021 8
484 1.943209711063565 0.5424761841036021 9
485 1.471604854900525 -0.4379047610726793 1
486 1.471604854900525 -0.4379047610726793 2
487 1.471604854900525 -0.4379047610726793 3
488 1.471604854900525 -0.4379047610726793 4
489 1.471604854900525 -0.4379047610726793 5
490 1.471604854900525 -0.4379047610726793 6
491 1.471604854900525 -0.4379047610726793 7
492 1.471604854900525 -0.4379047610726793 8
493 1.471604854900525 -0.4379047610726793 9
494 1.943209709801118 -0.5424761888138877 1
495 1.943209709801118 -0.5424761888138877 2
496 1.943209709801118 -0.5424761888138877 3
497 1.943209709801118 -0.5424761888138877 4
498 1.943209709801118 -0.5424761888138877 5
499 1.943209709801118 -0.5424761888138877 6
500 1.943209709801118 -0.5424761888138877 7
501 1.943209709801118 -0.5424761888138877 8
502 1.943209709801118 -0.5424761888138877 9
503 0.4379047585928325 -1.471604855565659 1
504 0.4379047585928325 -1.471604855565659 2
505 0.4379047585928325 -1.471604855565659 3
506 0.4379047585928325 -1.471604855565659 4
507 0.4379047585928325 -1.471604855565659 5
508 0.4379047585928325 -1.471604855565659 6
509 0.4379047585928325 -1.471604855565659 7
510 0.4379047585928325 -1.471604855565659 8
511 0.4379047585928325 -1.471604855565659 9
512 0.5424761838504981 -1.943209711131384 1
513 0.5424761838504981 -1.943209711131384 2
514 0.5424761838504981 -1.943209711131384 3
515 0.5424761838504981 -1.943209711131384 4
516 0.5424761838504981 -1.943209711131384 5
517 0.5424761838504981 -1.943209711131384 6
518 0.5424761838504981 -1.943209711131384 7
519 0.5424761838504981 -1.943209711131384 8
520 0.5424761838504981 -1.943209711131384 9
521 -0.4379047610654431 -1.471604854902464 1
522 -0.4379047610654431 -1.471604854902464 2
523 -0.4379047610654431 -1.471604854902464 3
524 -0.4379047610654431 -1.471604854902464 4
525 -0.4379047610654431 -1.471604854902464 5
526 -0.4379047610654431 -1.471604854902464 6
527 -0.4379047610654431 -1.471604854902464 7
528 -0.4379047610654431 -1.471604854902464 8
529 -0.4379047610654431 -1.471604854902464 9
530 -0.5424761887994158 -1.943209709804995 1
531 -0.5424761887994158 -1.943209709804995 2
532 -0.5424761887994158 -1.943209709804995 3
533 -0.5424761887994158 -1.943209709804995 4
534 -0.5424761887994158 -1.943209709804995 5
535 -0.5424761887994158 -1.943209709804995 6
536 -0.5424761887994158 -1.943209709804995 7
537 -0.5424761887994158 -1.943209709804995 8
538 -0.5424761887994158 -1.943209709804995 9
539 -1.471604855548579 -0.437904758656573 1
540 -1.471604855548579 -0.437904758656573 2
541 -1.471604855548579 -0.437904758656573 3
542 -1.471604855548579 -0.437904758656573 4
543 -1.471604855548579 -0.437904758656573 5
544 -1.471604855548579 -0.437904758656573 6
545 -1.471604855548579 -0.437904758656573 7
546 -1.471604855548579 -0.437904758656573 8
547 -1.471604855548579 -0.437904758656573 9
548 -1.943209711097226 -0.5424761839779788 1
549 -1.943209711097226 -0.5424761839779788 2
550 -1.943209711097226 -0.5424761839779788 3
551 -1.943209711097226 -0.5424761839779788 4
552 -1.943209711097226 -0.5424761839779788 5
553 -1.943209711097226 -0.5424761839779788 6
554 -1.943209711097226 -0.5424761839779788 7
555 -1.943209711097226 -0.5424761839779788 8
556 -1.943209711097226 -0.5424761839779788 9
557 -1.471604854927085 0.4379047609735587 1
558 -1.471604854927085 0.4379047609735587 2
559 -1.471604854927085 0.4379047609735587 3
560 -1.471604854927085 0.4379047609735587 4
561 -1.471604854927085 0.4379047609735587 5
562 -1.471604854927085 0.4379047609735587 6
563 -1.471604854927085 0.4379047609735587 7
564 -1.471604854927085 0.4379047609735587 8
565 -1.471604854927085 0.4379047609735587 9
566 -1.943209709854236 0.5424761886156469 1
567 -1.943209709854236 0.5424761886156469 2
568 -1.943209709854236 0.5424761886156469 3
569 -1.943209709854236 0.5424761886156469 4
570 -1.943209709854236 0.5424761886156469 5
571 -1.943209709854236 0.5424761886156469 6
572 -1.943209709854236 0.5424761886156469 7
573 -1.943209709854236 0.5424761886156469 8
574 -1.943209709854236 0.5424761886156469 9
$EndNodes
$Elements
1070
1 15 2 0 1 1
2 15 2 0 2 2
3 15 2 0 3 3
4 15 2 0 4 4
5 15 2 0 5 5
6 15 2 0 6 6
7 15 2 0 7 7
8 15 2 0 8 8
9 15 2 0 9 9
10 15 2 0 10 10
11 15 2 0 11 11
12 15 2 0 15 12
13 15 2 0 19 13
14 15 2 0 25 14
15 15 2 0 29 15
16 15 2 0 30 16
17 15 2 0 36 17
18 15 2 0 42 18
19 1 2 0 1 2 19
20 1 2 0 1 19 20
21 1 2 0 1 20 3
22 1 2 0 2 3 21
23 1 2 0 2 21 22
24 1 2 0 2 22 4
25 1 2 0 3 4 23
26 1 2 0 3 23 24
27 1 2 0 3 24 5
28 1 2 0 4 5 25
29 1 2 0 4 25 26
30 1 2 0 4 26 2
31 1 2 0 5 2 27
32 1 2 0 5 27 28
33 1 2 0 5 28 6
34 1 2 0 6 3 29
35 1 2 0 6 29 30
36 1 2 0 6 30 7
37 1 2 0 7 4 31
38 1 2 0 7 31 32
39 1 2 0 7 32 8
40 1 2 0 8 5 33
41 1 2 0 8 33 34
42 1 2 0 8 34 9
43 1 2 0 9 6 35
44 1 2 0 9 35 36
45 1 2 0 9 36 7
46 1 2 0 10 7 37
47 1 2 0 10 37 38
48 1 2 0 10 38 8
49 1 2 0 11 8 39
50 1 2 0 11 39 40
51 1 2 0 11 40 9
52 1 2 0 12 9 41
53 1 2 0 12 41 42
54 1 2 0 12 42 6
55 1 2 0 14 10 43
56 1 2 0 14 43 44
57 1 2 0 14 44 11
58 1 2 0 15 11 45
59 1 2 0 15 45 46
60 1 2 0 15 46 12
61 1 2 0 16 12 47
62 1 2 0 16 47 48
63 1 2 0 16 48 13
64 1 2 0 17 13 49
65 1 2 0 17 49 50
66 1 2 0 17 50 10
67 1 2 0 19 2 51
68 1 2 0 19 51 52
69 1 2 0 19 52 53
70 1 2 0 19 53 54
71 1 2 0 19 54 55
72 1 2 0 19 55 56
73 1 2 0 19 56 57
74 1 2 0 19 57 58
75 1 2 0 19 58 59
76 1 2 0 19 59 10
77 1 2 0 20 3 60
78 1 2 0 20 60 61
79 1 2 0 20 61 62
80 1 2 0 20 62 63
81 1 2 0 20 63 64
82 1 2 0 20 64 65
83 1 2 0 20 65 66
84 1 2 0 20 66 67
85 1 2 0 20 67 68
86 1 2 0 20 68 11
87 1 2 0 24 4 69
88 1 2 0 24 69 70
89 1 2 0 24 70 71
90 1 2 0 24 71 72
91 1 2 0 24 72 73
92 1 2 0 24 73 74
93 1 2 0 24 74 75
94 1 2 0 24 75 76
95 1 2 0 24 76 77
96 1 2 0 24 77 12
97 1 2 0 28 5 78
98 1 2 0 28 78 79
99 1 2 0 28 79 80
100 1 2 0 28 80 81
101 1 2 0 28 81 82
102 1 2 0 28 82 83
103 1 2 0 28 83 84
104 1 2 0 28 84 85
105 1 2 0 28 85 86
106 1 2 0 28 86 13
107 1 2 0 37 11 87
108 1 2 0 37 87 88
109 1 2 0 37 88 14
110 1 2 0 38 14 89
111 1 2 0 38 89 90
112 1 2 0 38 90 16
113 1 2 0 39 16 91
114 1 2 0 39 91 92
115 1 2 0 39 92 10
116 1 2 0 46 7 93
117 1 2 0 46 93 94
118 1 2 0 46 94 95
119 1 2 0 46 95 96
120 1 2 0 46 96 97
121 1 2 0 46 97 98
122 1 2 0 46 98 99
123 1 2 0 46 99 100
124 1 2 0 46 100 101
125 1 2 0 46 101 14
126 1 2 0 50 6 102
127 1 2 0 50 102 103
128 1 2 0 50 103 104
129 1 2 0 50 104 105
130 1 2 0 50 105 106
131 1 2 0 50 106 107
132 1 2 0 50 107 108
133 1 2 0 50 108 109
134 1 2 0 50 109 110
135 1 2 0 50 110 16
136 1 2 0 59 12 111
137 1 2 0 59 111 112
138 1 2 0 59 112 17
139 1 2 0 60 17 113
140 1 2 0 60 113 114
141 1 2 0 60 114 14
142 1 2 0 68 8 115
143 1 2 0 68 115 116
144 1 2 0 68 116 117
145 1 2 0 68 117 118
146 1 2 0 68 118 119
147 1 2 0 68 119 120
148 1 2 0 68 120 121
149 1 2 0 68 121 122
150 1 2 0 68 122 123
151 1 2 0 68 123 17
152 1 2 0 81 13 124
153 1 2 0 81 124 125
154 1 2 0 81 125 18
155 1 2 0 82 18 126
156 1 2 0 82 126 127
157 1 2 0 82 127 17
158 1 2 0 90 9 128
159 1 2 0 90 128 129
160 1 2 0 90 129 130
161 1 2 0 90 130 131
162 1 2 0 90 131 132
163 1 2 0 90 132 133
164 1 2 0 90 133 134
165 1 2 0 90 134 135
166 1 2 0 90 135 136
167 1 2 0 90 136 18
168 1 2 0 104 16 137
169 1 2 0 104 137 138
170 1 2 0 104 138 18
171 3 2 0 1 2 19 139 26
172 3 2 0 1 26 139 140 25
173 3 2 0 1 25 140 24 5
174 3 2 0 1 19 20 141 139
175 3 2 0 1 139 141 142 140
176 3 2 0 1 140 142 23 24
177 3 2 0 1 20 3 21 141
178 3 2 0 1 141 21 22 142
179 3 2 0 1 142 22 4 23
180 3 2 0 2 2 19 143 27
181 3 2 0 2 27 143 144 28
182 3 2 0 2 28 144 35 6
183 3 2 0 2 19 20 145 143
184 3 2 0 2 143 145 146 144
185 3 2 0 2 144 146 36 35
186 3 2 0 2 20 3 29 145
187 3 2 0 2 145 29 30 146
188 3 2 0 2 146 30 7 36
189 3 2 0 3 3 21 147 29
190 3 2 0 3 29 147 148 30
191 3 2 0 3 30 148 37 7
192 3 2 0 3 21 22 149 147
193 3 2 0 3 147 149 150 148
194 3 2 0 3 148 150 38 37
195 3 2 0 3 22 4 31 149
196 3 2 0 3 149 31 32 150
197 3 2 0 3 150 32 8 38
198 3 2 0 4 4 23 151 31
199 3 2 0 4 31 151 152 32
200 3 2 0 4 32 152 39 8
201 3 2 0 4 23 24 153 151
202 3 2 0 4 151 153 154 152
203 3 2 0 4 152 154 40 39
204 3 2 0 4 24 5 33 153
205 3 2 0 4 153 33 34 154
206 3 2 0 4 154 34 9 40
207 3 2 0 5 5 25 155 33
208 3 2 0 5 33 155 156 34
209 3 2 0 5 34 156 41 9
210 3 2 0 5 25 26 157 155
211 3 2 0 5 155 157 158 156
212 3 2 0 5 156 158 42 41
213 3 2 0 5 26 2 27 157
214 3 2 0 5 157 27 28 158
215 3 2 0 5 158 28 6 42
216 3 2 0 21 2 19 159 51
217 3 2 0 21 51 159 160 52
218 3 2 0 21 52 160 161 53
219 3 2 0 21 53 161 162 54
220 3 2 0 21 54 162 163 55
221 3 2 0 21 55 163 164 56
222 3 2 0 21 56 164 165 57
223 3 2 0 21 57 165 166 58
224 3 2 0 21 58 166 167 59
225 3 2 0 21 59 167 43 10
226 3 2 0 21 19 20 168 159
227 3 2 0 21 159 168 169 160
228 3 2 0 21 160 169 170 161
229 3 2 0 21 161 170 171 162
230 3 2 0 21 162 171 172 163
231 3 2 0 21 163 172 173 164
232 3 2 0 21 164 173 174 165
233 3 2 0 21 165 174 175 166
234 3 2 0 21 166 175 176 167
235 3 2 0 21 167 176 44 43
236 3 2 0 21 20 3 60 168
237 3 2 0 21 168 60 61 169
238 3 2 0 21 169 61 62 170
239 3 2 0 21 170 62 63 171
240 3 2 0 21 171 63 64 172
241 3 2 0 21 172 64 65 173
242 3 2 0 21 173 65 66 174
243 3 2 0 21 174 66 67 175
244 3 2 0 21 175 67 68 176
245 3 2 0 21 176 68 11 44
246 3 2 0 25 3 21 177 60
247 3 2 0 25 60 177 178 61
248 3 2 0 25 61 178 179 62
249 3 2 0 25 62 179 180 63
250 3 2 0 25 63 180 181 64
251 3 2 0 25 64 181 182 65
252 3 2 0 25 65 182 183 66
253 3 2 0 25 66 183 184 67
254 3 2 0 25 67 184 185 68
255 3 2 0 25 68 185 45 11
256 3 2 0 25 21 22 186 177
257 3 2 0 25 177 186 187 178
258 3 2 0 25 178 187 188 179
259 3 2 0 25 179 188 189 180
260 3 2 0 25 180 189 190 181
261 3 2 0 25 181 190 191 182
262 3 2 0 25 182 191 192 183
263 3 2 0 25 183 192 193 184
264 3 2 0 25 184 193 194 185
265 3 2 0 25 185 194 46 45
266 3 2 0 25 22 4 69 186
267 3 2 0 25 186 69 70 187
268 3 2 0 25 187 70 71 188
269 3 2 0 25 188 71 72 189
270 3 2 0 25 189 72 73 190
271 3 2 0 25 190 73 74 191
272 3 2 0 25 191 74 75 192
273 3 2 0 25 192 75 76 193
274 3 2 0 25 193 76 77 194
275 3 2 0 25 194 77 12 46
276 3 2 0 29 4 23 195 69
277 3 2 0 29 69 195 196 70
278 3 2 0 29 70 196 197 71
279 3 2 0 29 71 197 198 72
280 3 2 0 29 72 198 199 73
281 3 2 0 29 73 199 200 74
282 3 2 0 29 74 200 201 75
283 3 2 0 29 75 201 202 76
284 3 2 0 29 76 202 203 77
285 3 2 0 29 77 203 47 12
286 3 2 0 29 23 24 204 195
287 3 2 0 29 195 204 205 196
288 3 2 0 29 196 205 206 197
289 3 2 0 29 197 206 207 198
290 3 2 0 29 198 207 208 199
291 3 2 0 29 199 208 209 200
292 3 2 0 29 200 209 210 201
293 3 2 0 29 201 210 211 202
294 3 2 0 29 202 211 212 203
295 3 2 0 29 203 212 48 47
296 3 2 0 29 24 5 78 204
297 3 2 0 29 204 78 79 205
298 3 2 0 29 205 79 80 206
299 3 2 0 29 206 80 81 207
300 3 2 0 29 207 81 82 208
301 3 2 0 29 208 82 83 209
302 3 2 0 29 209 83 84 210
303 3 2 0 29 210 84 85 211
304 3 2 0 29 211 85 86 212
305 3 2 0 29 212 86 13 48
306 3 2 0 33 5 25 213 78
307 3 2 0 33 78 213 214 79
308 3 2 0 33 79 214 215 80
309 3 2 0 33 80 215 216 81
310 3 2 0 33 81 216 217 82
311 3 2 0 33 82 217 218 83
312 3 2 0 33 83 218 219 84
313 3 2 0 33 84 219 220 85
314 3 2 0 33 85 220 221 86
315 3 2 0 33 86 221 49 13
316 3 2 0 33 25 26 222 213
317 3 2 0 33 213 222 223 214
318 3 2 0 33 214 223 224 215
319 3 2 0 33 215 224 225 216
320 3 2 0 33 216 225 226 217
321 3 2 0 33 217 226 227 218
322 3 2 0 33 218 227 228 219
323 3 2 0 33 219 228 229 220
324 3 2 0 33 220 229 230 221
325 3 2 0 33 221 230 50 49
326 3 2 0 33 26 2 51 222
327 3 2 0 33 222 51 52 223
328 3 2 0 33 223 52 53 224
329 3 2 0 33 224 53 54 225
330 3 2 0 33 225 54 55 226
331 3 2 0 33 226 55 56 227
332 3 2 0 33 227 56 57 228
333 3 2 0 33 228 57 58 229
334 3 2 0 33 229 58 59 230
335 3 2 0 33 230 59 10 50
336 3 2 0 34 10 43 231 50
337 3 2 0 34 50 231 232 49
338 3 2 0 34 49 232 48 13
339 3 2 0 34 43 44 233 231
340 3 2 0 34 231 233 234 232
341 3 2 0 34 232 234 47 48
342 3 2 0 34 44 11 45 233
343 3 2 0 34 233 45 46 234
344 3 2 0 34 234 46 12 47
345 3 2 0 47 3 29 235 60
346 3 2 0 47 60 235 236 61
347 3 2 0 47 61 236 237 62
348 3 2 0 47 62 237 238 63
349 3 2 0 47 63 238 239 64
350 3 2 0 47 64 239 240 65
351 3 2 0 47 65 240 241 66
352 3 2 0 47 66 241 242 67
353 3 2 0 47 67 242 243 68
354 3 2 0 47 68 243 87 11
355 3 2 0 47 29 30 244 235
356 3 2 0 47 235 244 245 236
357 3 2 0 47 236 245 246 237
358 3 2 0 47 237 246 247 238
359 3 2 0 47 238 247 248 239
360 3 2 0 47 239 248 249 240
361 3 2 0 47 240 249 250 241
362 3 2 0 47 241 250 251 242
363 3 2 0 47 242 251 252 243
364 3 2 0 47 243 252 88 87
365 3 2 0 47 30 7 93 244
366 3 2 0 47 244 93 94 245
367 3 2 0 47 245 94 95 246
368 3 2 0 47 246 95 96 247
369 3 2 0 47 247 96 97 248
370 3 2 0 47 248 97 98 249
371 3 2 0 47 249 98 99 250
372 3 2 0 47 250 99 100 251
373 3 2 0 47 251 100 101 252
374 3 2 0 47 252 101 14 88
375 3 2 0 51 6 102 253 35
376 3 2 0 51 102 103 254 253
377 3 2 0 51 103 104 255 254
378 3 2 0 51 104 105 256 255
379 3 2 0 51 105 106 257 256
380 3 2 0 51 106 107 258 257
381 3 2 0 51 107 108 259 258
382 3 2 0 51 108 109 260 259
383 3 2 0 51 109 110 261 260
384 3 2 0 51 110 16 90 261
385 3 2 0 51 35 253 262 36
386 3 2 0 51 253 254 263 262
387 3 2 0 51 254 255 264 263
388 3 2 0 51 255 256 265 264
389 3 2 0 51 256 257 266 265
390 3 2 0 51 257 258 267 266
391 3 2 0 51 258 259 268 267
392 3 2 0 51 259 260 269 268
393 3 2 0 51 260 261 270 269
394 3 2 0 51 261 90 89 270
395 3 2 0 51 36 262 93 7
396 3 2 0 51 262 263 94 93
397 3 2 0 51 263 264 95 94
398 3 2 0 51 264 265 96 95
399 3 2 0 51 265 266 97 96
400 3 2 0 51 266 267 98 97
401 3 2 0 51 267 268 99 98
402 3 2 0 51 268 269 100 99
403 3 2 0 51 269 270 101 100
404 3 2 0 51 270 89 14 101
405 3 2 0 55 2 51 271 27
406 3 2 0 55 51 52 272 271
407 3 2 0 55 52 53 273 272
408 3 2 0 55 53 54 274 273
409 3 2 0 55 54 55 275 274
410 3 2 0 55 55 56 276 275
411 3 2 0 55 56 57 277 276
412 3 2 0 55 57 58 278 277
413 3 2 0 55 58 59 279 278
414 3 2 0 55 59 10 92 279
415 3 2 0 55 27 271 280 28
416 3 2 0 55 271 272 281 280
417 3 2 0 55 272 273 282 281
418 3 2 0 55 273 274 283 282
419 3 2 0 55 274 275 284 283
420 3 2 0 55 275 276 285 284
421 3 2 0 55 276 277 286 285
422 3 2 0 55 277 278 287 286
423 3 2 0 55 278 279 288 287
424 3 2 0 55 279 92 91 288
425 3 2 0 55 28 280 102 6
426 3 2 0 55 280 281 103 102
427 3 2 0 55 281 282 104 103
428 3 2 0 55 282 283 105 104
429 3 2 0 55 283 284 106 105
430 3 2 0 55 284 285 107 106
431 3 2 0 55 285 286 108 107
432 3 2 0 55 286 287 109 108
433 3 2 0 55 287 288 110 109
434 3 2 0 55 288 91 16 110
435 3 2 0 56 10 43 289 92
436 3 2 0 56 92 289 290 91
437 3 2 0 56 91 290 90 16
438 3 2 0 56 43 44 291 289
439 3 2 0 56 289 291 292 290
440 3 2 0 56 290 292 89 90
441 3 2 0 56 44 11 87 291
442 3 2 0 56 291 87 88 292
443 3 2 0 56 292 88 14 89
444 3 2 0 69 4 31 293 69
445 3 2 0 69 69 293 294 70
446 3 2 0 69 70 294 295 71
447 3 2 0 69 71 295 296 72
448 3 2 0 69 72 296 297 73
449 3 2 0 69 73 297 298 74
450 3 2 0 69 74 298 299 75
451 3 2 0 69 75 299 300 76
452 3 2 0 69 76 300 301 77
453 3 2 0 69 77 301 111 12
454 3 2 0 69 31 32 302 293
455 3 2 0 69 293 302 303 294
456 3 2 0 69 294 303 304 295
457 3 2 0 69 295 304 305 296
458 3 2 0 69 296 305 306 297
459 3 2 0 69 297 306 307 298
460 3 2 0 69 298 307 308 299
461 3 2 0 69 299 308 309 300
462 3 2 0 69 300 309 310 301
463 3 2 0 69 301 310 112 111
464 3 2 0 69 32 8 115 302
465 3 2 0 69 302 115 116 303
466 3 2 0 69 303 116 117 304
467 3 2 0 69 304 117 118 305
468 3 2 0 69 305 118 119 306
469 3 2 0 69 306 119 120 307
470 3 2 0 69 307 120 121 308
471 3 2 0 69 308 121 122 309
472 3 2 0 69 309 122 123 310
473 3 2 0 69 310 123 17 112
474 3 2 0 73 7 93 311 37
475 3 2 0 73 93 94 312 311
476 3 2 0 73 94 95 313 312
477 3 2 0 73 95 96 314 313
478 3 2 0 73 96 97 315 314
479 3 2 0 73 97 98 316 315
480 3 2 0 73 98 99 317 316
481 3 2 0 73 99 100 318 317
482 3 2 0 73 100 101 319 318
483 3 2 0 73 101 14 114 319
484 3 2 0 73 37 311 320 38
485 3 2 0 73 311 312 321 320
486 3 2 0 73 312 313 322 321
487 3 2 0 73 313 314 323 322
488 3 2 0 73 314 315 324 323
489 3 2 0 73 315 316 325 324
490 3 2 0 73 316 317 326 325
491 3 2 0 73 317 318 327 326
492 3 2 0 73 318 319 328 327
493 3 2 0 73 319 114 113 328
494 3 2 0 73 38 320 115 8
495 3 2 0 73 320 321 116 115
496 3 2 0 73 321 322 117 116
497 3 2 0 73 322 323 118 117
498 3 2 0 73 323 324 119 118
499 3 2 0 73 324 325 120 119
500 3 2 0 73 325 326 121 120
501 3 2 0 73 326 327 122 121
502 3 2 0 73 327 328 123 122
503 3 2 0 73 328 113 17 123
504 3 2 0 78 11 45 329 87
505 3 2 0 78 87 329 330 88
506 3 2 0 78 88 330 114 14
507 3 2 0 78 45 46 331 329
508 3 2 0 78 329 331 332 330
509 3 2 0 78 330 332 113 114
510 3 2 0 78 46 12 111 331
511 3 2 0 78 331 111 112 332
512 3 2 0 78 332 112 17 113
513 3 2 0 91 5 33 333 78
514 3 2 0 91 78 333 334 79
515 3 2 0 91 79 334 335 80
516 3 2 0 91 80 335 336 81
517 3 2 0 91 81 336 337 82
518 3 2 0 91 82 337 338 83
519 3 2 0 91 83 338 339 84
520 3 2 0 91 84 339 340 85
521 3 2 0 91 85 340 341 86
522 3 2 0 91 86 341 124 13
523 3 2 0 91 33 34 342 333
524 3 2 0 91 333 342 343 334
525 3 2 0 91 334 343 344 335
526 3 2 0 91 335 344 345 336
527 3 2 0 91 336 345 346 337
528 3 2 0 91 337 346 347 338
529 3 2 0 91 338 347 348 339
530 3 2 0 91 339 348 349 340
531 3 2 0 91 340 349 350 341
532 3 2 0 91 341 350 125 124
533 3 2 0 91 34 9 128 342
534 3 2 0 91 342 128 129 343
535 3 2 0 91 343 129 130 344
536 3 2 0 91 344 130 131 345
537 3 2 0 91 345 131 132 346
538 3 2 0 91 346 132 133 347
539 3 2 0 91 347 133 134 348
540 3 2 0 91 348 134 135 349
541 3 2 0 91 349 135 136 350
542 3 2 0 91 350 136 18 125
543 3 2 0 95 8 115 351 39
544 3 2 0 95 115 116 352 351
545 3 2 0 95 116 117 353 352
546 3 2 0 95 117 118 354 353
547 3 2 0 95 118 119 355 354
548 3 2 0 95 119 120 356 355
549 3 2 0 95 120 121 357 356
550 3 2 0 95 121 122 358 357
551 3 2 0 95 122 123 359 358
552 3 2 0 95 123 17 127 359
553 3 2 0 95 39 351 360 40
554 3 2 0 95 351 352 361 360
555 3 2 0 95 352 353 362 361
556 3 2 0 95 353 354 363 362
557 3 2 0 95 354 355 364 363
558 3 2 0 95 355 356 365 364
559 3 2 0 95 356 357 366 365
560 3 2 0 95 357 358 367 366
561 3 2 0 95 358 359 368 367
562 3 2 0 95 359 127 126 368
563 3 2 0 95 40 360 128 9
564 3 2 0 95 360 361 129 128
565 3 2 0 95 361 362 130 129
566 3 2 0 95 362 363 131 130
567 3 2 0 95 363 364 132 131
568 3 2 0 95 364 365 133 132
569 3 2 0 95 365 366 134 133
570 3 2 0 95 366 367 135 134
571 3 2 0 95 367 368 136 135
572 3 2 0 95 368 126 18 136
573 3 2 0 100 12 47 369 111
574 3 2 0 100 111 369 370 112
575 3 2 0 100 112 370 127 17
576 3 2 0 100 47 48 371 369
577 3 2 0 100 369 371 372 370
578 3 2 0 100 370 372 126 127
579 3 2 0 100 48 13 124 371
580 3 2 0 100 371 124 125 372
581 3 2 0 100 372 125 18 126
582 3 2 0 117 9 128 373 41
583 3 2 0 117 128 129 374 373
584 3 2 0 117 129 130 375 374
585 3 2 0 117 130 131 376 375
586 3 2 0 117 131 132 377 376
587 3 2 0 117 132 133 378 377
588 3 2 0 117 133 134 379 378
589 3 2 0 117 134 135 380 379
590 3 2 0 117 135 136 381 380
591 3 2 0 117 136 18 138 381
592 3 2 0 117 41 373 382 42
593 3 2 0 117 373 374 383 382
594 3 2 0 117 374 375 384 383
595 3 2 0 117 375 376 385 384
596 3 2 0 117 376 377 386 385
597 3 2 0 117 377 378 387 386
598 3 2 0 117 378 379 388 387
599 3 2 0 117 379 380 389 388
600 3 2 0 117 380 381 390 389
601 3 2 0 117 381 138 137 390
602 3 2 0 117 42 382 102 6
603 3 2 0 117 382 383 103 102
604 3 2 0 117 383 384 104 103
605 3 2 0 117 384 385 105 104
606 3 2 0 117 385 386 106 105
607 3 2 0 117 386 387 107 106
608 3 2 0 117 387 388 108 107
609 3 2 0 117 388 389 109 108
610 3 2 0 117 389 390 110 109
611 3 2 0 117 390 137 16 110
612 3 2 0 122 13 49 391 124
613 3 2 0 122 124 391 392 125
614 3 2 0 122 125 392 138 18
615 3 2 0 122 49 50 393 391
616 3 2 0 122 391 393 394 392
617 3 2 0 122 392 394 137 138
618 3 2 0 122 50 10 92 393
619 3 2 0 122 393 92 91 394
620 3 2 0 122 394 91 16 137
621 5 2 0 1 139 19 2 26 395 159 51 222
622 5 2 0 1 395 159 51 222 396 160 52 223
623 5 2 0 1 396 160 52 223 397 161 53 224
624 5 2 0 1 397 161 53 224 398 162 54 225
625 5 2 0 1 398 162 54 225 399 163 55 226
626 5 2 0 1 399 163 55 226 400 164 56 227
627 5 2 0 1 400 164 56 227 401 165 57 228
628 5 2 0 1 401 165 57 228 402 166 58 229
629 5 2 0 1 402 166 58 229 403 167 59 230
630 5 2 0 1 403 167 59 230 231 43 10 50
631 5 2 0 1 140 139 26 25 404 395 222 213
632 5 2 0 1 404 395 222 213 405 396 223 214
633 5 2 0 1 405 396 223 214 406 397 224 215
634 5 2 0 1 406 397 224 215 407 398 225 216
635 5 2 0 1 407 398 225 216 408 399 226 217
636 5 2 0 1 408 399 226 217 409 400 227 218
637 5 2 0 1 409 400 227 218 410 401 228 219
638 5 2 0 1 410 401 228 219 411 402 229 220
639 5 2 0 1 411 402 229 220 412 403 230 221
640 5 2 0 1 412 403 230 221 232 231 50 49
641 5 2 0 1 24 140 25 5 204 404 213 78
642 5 2 0 1 204 404 213 78 205 405 214 79
643 5 2 0 1 205 405 214 79 206 406 215 80
644 5 2 0 1 206 406 215 80 207 407 216 81
645 5 2 0 1 207 407 216 81 208 408 217 82
646 5 2 0 1 208 408 217 82 209 409 218 83
647 5 2 0 1 209 409 218 83 210 410 219 84
648 5 2 0 1 210 410 219 84 211 411 220 85
649 5 2 0 1 211 411 220 85 212 412 221 86
650 5 2 0 1 212 412 221 86 48 232 49 13
651 5 2 0 1 141 20 19 139 413 168 159 395
652 5 2 0 1 413 168 159 395 414 169 160 396
653 5 2 0 1 414 169 160 396 415 170 161 397
654 5 2 0 1 415 170 161 397 416 171 162 398
655 5 2 0 1 416 171 162 398 417 172 163 399
656 5 2 0 1 417 172 163 399 418 173 164 400
657 5 2 0 1 418 173 164 400 419 174 165 401
658 5 2 0 1 419 174 165 401 420 175 166 402
659 5 2 0 1 420 175 166 402 421 176 167 403
660 5 2 0 1 421 176 167 403 233 44 43 231
661 5 2 0 1 142 141 139 140 422 413 395 404
662 5 2 0 1 422 413 395 404 423 414 396 405
663 5 2 0 1 423 414 396 405 424 415 397 406
664 5 2 0 1 424 415 397 406 425 416 398 407
665 5 2 0 1 425 416 398 407 426 417 399 408
666 5 2 0 1 426 417 399 408 427 418 400 409
667 5 2 0 1 427 418 400 409 428 419 401 410
668 5 2 0 1 428 419 401 410 429 420 402 411
669 5 2 0 1 429 420 402 411 430 421 403 412
670 5 2 0 1 430 421 403 412 234 233 231 232
671 5 2 0 1 23 142 140 24 195 422 404 204
672 5 2 0 1 195 422 404 204 196 423 405 205
673 5 2 0 1 196 423 405 205 197 424 406 206
674 5 2 0 1 197 424 406 206 198 425 407 207
675 5 2 0 1 198 425 407 207 199 426 408 208
676 5 2 0 1 199 426 408 208 200 427 409 209
677 5 2 0 1 200 427 409 209 201 428 410 210
678 5 2 0 1 201 428 410 210 202 429 411 211
679 5 2 0 1 202 429 411 211 203 430 412 212
680 5 2 0 1 203 430 412 212 47 234 232 48
681 5 2 0 1 21 3 20 141 177 60 168 413
682 5 2 0 1 177 60 168 413 178 61 169 414
683 5 2 0 1 178 61 169 414 179 62 170 415
684 5 2 0 1 179 62 170 415 180 63 171 416
685 5 2 0 1 180 63 171 416 181 64 172 417
686 5 2 0 1 181 64 172 417 182 65 173 418
687 5 2 0 1 182 65 173 418 183 66 174 419
688 5 2 0 1 183 66 174 419 184 67 175 420
689 5 2 0 1 184 67 175 420 185 68 176 421
690 5 2 0 1 185 68 176 421 45 11 44 233
691 5 2 0 1 22 21 141 142 186 177 413 422
692 5 2 0 1 186 177 413 422 187 178 414 423
693 5 2 0 1 187 178 414 423 188 179 415 424
694 5 2 0 1 188 179 415 424 189 180 416 425
695 5 2 0 1 189 180 416 425 190 181 417 426
696 5 2 0 1 190 181 417 426 191 182 418 427
697 5 2 0 1 191 182 418 427 192 183 419 428
698 5 2 0 1 192 183 419 428 193 184 420 429
699 5 2 0 1 193 184 420 429 194 185 421 430
700 5 2 0 1 194 185 421 430 46 45 233 234
701 5 2 0 1 4 22 142 23 69 186 422 195
702 5 2 0 1 69 186 422 195 70 187 423 196
703 5 2 0 1 70 187 423 196 71 188 424 197
704 5 2 0 1 71 188 424 197 72 189 425 198
705 5 2 0 1 72 189 425 198 73 190 426 199
706 5 2 0 1 73 190 426 199 74 191 427 200
707 5 2 0 1 74 191 427 200 75 192 428 201
708 5 2 0 1 75 192 428 201 76 193 429 202
709 5 2 0 1 76 193 429 202 77 194 430 203
710 5 2 0 1 77 194 430 203 12 46 234 47
711 5 2 0 2 2 19 143 27 51 159 431 271
712 5 2 0 2 51 159 431 271 52 160 432 272
713 5 2 0 2 52 160 432 272 53 161 433 273
714 5 2 0 2 53 161 433 273 54 162 434 274
715 5 2 0 2 54 162 434 274 55 163 435 275
716 5 2 0 2 55 163 435 275 56 164 436 276
717 5 2 0 2 56 164 436 276 57 165 437 277
718 5 2 0 2 57 165 437 277 58 166 438 278
719 5 2 0 2 58 166 438 278 59 167 439 279
720 5 2 0 2 59 167 439 279 10 43 289 92
721 5 2 0 2 27 143 144 28 271 431 440 280
722 5 2 0 2 271 431 440 280 272 432 441 281
723 5 2 0 2 272 432 441 281 273 433 442 282
724 5 2 0 2 273 433 442 282 274 434 443 283
725 5 2 0 2 274 434 443 283 275 435 444 284
726 5 2 0 2 275 435 444 284 276 436 445 285
727 5 2 0 2 276 436 445 285 277 437 446 286
728 5 2 0 2 277 437 446 286 278 438 447 287
729 5 2 0 2 278 438 447 287 279 439 448 288
730 5 2 0 2 279 439 448 288 92 289 290 91
731 5 2 0 2 28 144 35 6 280 440 253 102
732 5 2 0 2 280 440 253 102 281 441 254 103
733 5 2 0 2 281 441 254 103 282 442 255 104
734 5 2 0 2 282 442 255 104 283 443 256 105
735 5 2 0 2 283 443 256 105 284 444 257 106
736 5 2 0 2 284 444 257 106 285 445 258 107
737 5 2 0 2 285 445 258 107 286 446 259 108
738 5 2 0 2 286 446 259 108 287 447 260 109
739 5 2 0 2 287 447 260 109 288 448 261 110
740 5 2 0 2 288 448 261 110 91 290 90 16
741 5 2 0 2 19 20 145 143 159 168 449 431
742 5 2 0 2 159 168 449 431 160 169 450 432
743 5 2 0 2 160 169 450 432 161 170 451 433
744 5 2 0 2 161 170 451 433 162 171 452 434
745 5 2 0 2 162 171 452 434 163 172 453 435
746 5 2 0 2 163 172 453 435 164 173 454 436
747 5 2 0 2 164 173 454 436 165 174 455 437
748 5 2 0 2 165 174 455 437 166 175 456 438
749 5 2 0 2 166 175 456 438 167 176 457 439
750 5 2 0 2 167 176 457 439 43 44 291 289
751 5 2 0 2 143 145 146 144 431 449 458 440
752 5 2 0 2 431 449 458 440 432 450 459 441
753 5 2 0 2 432 450 459 441 433 451 460 442
754 5 2 0 2 433 451 460 442 434 452 461 443
755 5 2 0 2 434 452 461 443 435 453 462 444
756 5 2 0 2 435 453 462 444 436 454 463 445
757 5 2 0 2 436 454 463 445 437 455 464 446
758 5 2 0 2 437 455 464 446 438 456 465 447
759 5 2 0 2 438 456 465 447 439 457 466 448
760 5 2 0 2 439 457 466 448 289 291 292 290
761 5 2 0 2 144 146 36 35 440 458 262 253
762 5 2 0 2 440 458 262 253 441 459 263 254
763 5 2 0 2 441 459 263 254 442 460 264 255
764 5 2 0 2 442 460 264 255 443 461 265 256
765 5 2 0 2 443 461 265 256 444 462 266 257
766 5 2 0 2 444 462 266 257 445 463 267 258
767 5 2 0 2 445 463 267 258 446 464 268 259
768 5 2 0 2 446 464 268 259 447 465 269 260
769 5 2 0 2 447 465 269 260 448 466 270 261
770 5 2 0 2 448 466 270 261 290 292 89 90
771 5 2 0 2 20 3 29 145 168 60 235 449
772 5 2 0 2 168 60 235 449 169 61 236 450
773 5 2 0 2 169 61 236 450 170 62 237 451
774 5 2 0 2 170 62 237 451 171 63 238 452
775 5 2 0 2 171 63 238 452 172 64 239 453
776 5 2 0 2 172 64 239 453 173 65 240 454
777 5 2 0 2 173 65 240 454 174 66 241 455
778 5 2 0 2 174 66 241 455 175 67 242 456
779 5 2 0 2 175 67 242 456 176 68 243 457
780 5 2 0 2 176 68 243 457 44 11 87 291
781 5 2 0 2 145 29 30 146 449 235 244 458
782 5 2 0 2 449 235 244 458 450 236 245 459
783 5 2 0 2 450 236 245 459 451 237 246 460
784 5 2 0 2 451 237 246 460 452 238 247 461
785 5 2 0 2 452 238 247 461 453 239 248 462
786 5 2 0 2 453 239 248 462 454 240 249 463
787 5 2 0 2 454 240 249 463 455 241 250 464
788 5 2 0 2 455 241 250 464 456 242 251 465
789 5 2 0 2 456 242 251 465 457 243 252 466
790 5 2 0 2 457 243 252 466 291 87 88 292
791 5 2 0 2 146 30 7 36 458 244 93 262
792 5 2 0 2 458 244 93 262 459 245 94 263
793 5 2 0 2 459 245 94 263 460 246 95 264
794 5 2 0 2 460 246 95 264 461 247 96 265
795 5 2 0 2 461 247 96 265 462 248 97 266
796 5 2 0 2 462 248 97 266 463 249 98 267
797 5 2 0 2 463 249 98 267 464 250 99 268
798 5 2 0 2 464 250 99 268 465 251 100 269
799 5 2 0 2 465 251 100 269 466 252 101 270
800 5 2 0 2 466 252 101 270 292 88 14 89
801 5 2 0 3 3 21 147 29 60 177 467 235
802 5 2 0 3 60 177 467 235 61 178 468 236
803 5 2 0 3 61 178 468 236 62 179 469 237
804 5 2 0 3 62 179 469 237 63 180 470 238
805 5 2 0 3 63 180 470 238 64 181 471 239
806 5 2 0 3 64 181 471 239 65 182 472 240
807 5 2 0 3 65 182 472 240 66 183 473 241
808 5 2 0 3 66 183 473 241 67 184 474 242
809 5 2 0 3 67 184 474 242 68 185 475 243
810 5 2 0 3 68 185 475 243 11 45 329 87
811 5 2 0 3 29 147 148 30 235 467 476 244
812 5 2 0 3 235 467 476 244 236 468 477 245
813 5 2 0 3 236 468 477 245 237 469 478 246
814 5 2 0 3 237 469 478 246 238 470 479 247
815 5 2 0 3 238 470 479 247 239 471 480 248
816 5 2 0 3 239 471 480 248 240 472 481 249
817 5 2 0 3 240 472 481 249 241 473 482 250
818 5 2 0 3 241 473 482 250 242 474 483 251
819 5 2 0 3 242 474 483 251 243 475 484 252
820 5 2 0 3 243 475 484 252 87 329 330 88
821 5 2 0 3 30 148 37 7 244 476 311 93
822 5 2 0 3 244 476 311 93 245 477 312 94
823 5 2 0 3 245 477 312 94 246 478 313 95
824 5 2 0 3 246 478 313 95 247 479 314 96
825 5 2 0 3 247 479 314 96 248 480 315 97
826 5 2 0 3 248 480 315 97 249 481 316 98
827 5 2 0 3 249 481 316 98 250 482 317 99
828 5 2 0 3 250 482 317 99 251 483 318 100
829 5 2 0 3 251 483 318 100 252 484 319 101
830 5 2 0 3 252 484 319 101 88 330 114 14
831 5 2 0 3 21 22 149 147 177 186 485 467
832 5 2 0 3 177 186 485 467 178 187 486 468
833 5 2 0 3 178 187 486 468 179 188 487 469
834 5 2 0 3 179 188 487 469 180 189 488 470
835 5 2 0 3 180 189 488 470 181 190 489 471
836 5 2 0 3 181 190 489 471 182 191 490 472
837 5 2 0 3 182 191 490 472 183 192 491 473
838 5 2 0 3 183 192 491 473 184 193 492 474
839 5 2 0 3 184 193 492 474 185 194 493 475
840 5 2 0 3 185 194 493 475 45 46 331 329
841 5 2 0 3 147 149 150 148 467 485 494 476
842 5 2 0 3 467 485 494 476 468 486 495 477
843 5 2 0 3 468 486 495 477 469 487 496 478
844 5 2 0 3 469 487 496 478 470 488 497 479
845 5 2 0 3 470 488 497 479 471 489 498 480
846 5 2 0 3 471 489 498 480 472 490 499 481
847 5 2 0 3 472 490 499 481 473 491 500 482
848 5 2 0 3 473 491 500 482 474 492 501 483
849 5 2 0 3 474 492 501 483 475 493 502 484
850 5 2 0 3 475 493 502 484 329 331 332 330
851 5 2 0 3 148 150 38 37 476 494 320 311
852 5 2 0 3 476 494 320 311 477 495 321 312
853 5 2 0 3 477 495 321 312 478 496 322 313
854 5 2 0 3 478 496 322 313 479 497 323 314
855 5 2 0 3 479 497 323 314 480 498 324 315
856 5 2 0 3 480 498 324 315 481 499 325 316
857 5 2 0 3 481 499 325 316 482 500 326 317
858 5 2 0 3 482 500 326 317 483 501 327 318
859 5 2 0 3 483 501 327 318 484 502 328 319
860 5 2 0 3 484 502 328 319 330 332 113 114
861 5 2 0 3 22 4 31 149 186 69 293 485
862 5 2 0 3 186 69 293 485 187 70 294 486
863 5 2 0 3 187 70 294 486 188 71 295 487
864 5 2 0 3 188 71 295 487 189 72 296 488
865 5 2 0 3 189 72 296 488 190 73 297 489
866 5 2 0 3 190 73 297 489 191 74 298 490
867 5 2 0 3 191 74 298 490 192 75 299 491
868 5 2 0 3 192 75 299 491 193 76 300 492
869 5 2 0 3 193 76 300 492 194 77 301 493
870 5 2 0 3 194 77 301 493 46 12 111 331
871 5 2 0 3 149 31 32 150 485 293 302 494
872 5 2 0 3 485 293 302 494 486 294 303 495
873 5 2 0 3 486 294 303 495 487 295 304 496
874 5 2 0 3 487 295 304 496 488 296 305 497
875 5 2 0 3 488 296 305 497 489 297 306 498
876 5 2 0 3 489 297 306 498 490 298 307 499
877 5 2 0 3 490 298 307 499 491 299 308 500
878 5 2 0 3 491 299 308 500 492 300 309 501
879 5 2 0 3 492 300 309 501 493 301 310 502
880 5 2 0 3 493 301 310 502 331 111 112 332
881 5 2 0 3 150 32 8 38 494 302 115 320
882 5 2 0 3 494 302 115 320 495 303 116 321
883 5 2 0 3 495 303 116 321 496 304 117 322
884 5 2 0 3 496 304 117 322 497 305 118 323
885 5 2 0 3 497 305 118 323 498 306 119 324
886 5 2 0 3 498 306 119 324 499 307 120 325
887 5 2 0 3 499 307 120 325 500 308 121 326
888 5 2 0 3 500 308 121 326 501 309 122 327
889 5 2 0 3 501 309 122 327 502 310 123 328
890 5 2 0 3 502 310 123 328 332 112 17 113
891 5 2 0 4 4 23 151 31 69 195 503 293
892 5 2 0 4 69 195 503 293 70 196 504 294
893 5 2 0 4 70 196 504 294 71 197 505 295
894 5 2 0 4 71 197 505 295 72 198 506 296
895 5 2 0 4 72 198 506 296 73 199 507 297
896 5 2 0 4 73 199 507 297 74 200 508 298
897 5 2 0 4 74 200 508 298 75 201 509 299
898 5 2 0 4 75 201 509 299 76 202 510 300
899 5 2 0 4 76 202 510 300 77 203 511 301
900 5 2 0 4 77 203 511 301 12 47 369 111
901 5 2 0 4 31 151 152 32 293 503 512 302
902 5 2 0 4 293 503 512 302 294 504 513 303
903 5 2 0 4 294 504 513 303 295 505 514 304
904 5 2 0 4 295 505 514 304 296 506 515 305
905 5 2 0 4 296 506 515 305 297 507 516 306
906 5 2 0 4 297 507 516 306 298 508 517 307
907 5 2 0 4 298 508 517 307 299 509 518 308
908 5 2 0 4 299 509 518 308 300 510 519 309
909 5 2 0 4 300 510 519 309 301 511 520 310
910 5 2 0 4 301 511 520 310 111 369 370 112
911 5 2 0 4 32 152 39 8 302 512 351 115
912 5 2 0 4 302 512 351 115 303 513 352 116
913 5 2 0 4 303 513 352 116 304 514 353 117
914 5 2 0 4 304 514 353 117 305 515 354 118
915 5 2 0 4 305 515 354 118 306 516 355 119
916 5 2 0 4 306 516 355 119 307 517 356 120
917 5 2 0 4 307 517 356 120 308 518 357 121
918 5 2 0 4 308 518 357 121 309 519 358 122
919 5 2 0 4 309 519 358 122 310 520 359 123
920 5 2 0 4 310 520 359 123 112 370 127 17
921 5 2 0 4 23 24 153 151 195 204 521 503
922 5 2 0 4 195 204 521 503 196 205 522 504
923 5 2 0 4 196 205 522 504 197 206 523 505
924 5 2 0 4 197 206 523 505 198 207 524 506
925 5 2 0 4 198 207 524 506 199 208 525 507
926 5 2 0 4 199 208 525 507 200 209 526 508
927 5 2 0 4 200 209 526 508 201 210 527 509
928 5 2 0 4 201 210 527 509 202 211 528 510
929 5 2 0 4 202 211 528 510 203 212 529 511
930 5 2 0 4 203 212 529 511 47 48 371 369
931 5 2 0 4 151 153 154 152 503 521 530 512
932 5 2 0 4 503 521 530 512 504 522 531 513
933 5 2 0 4 504 522 531 513 505 523 532 514
934 5 2 0 4 505 523 532 514 506 524 533 515
935 5 2 0 4 506 524 533 515 507 525 534 516
936 5 2 0 4 507 525 534 516 508 526 535 517
937 5 2 0 4 508 526 535 517 509 527 536 518
938 5 2 0 4 509 527 536 518 510 528 537 519
939 5 2 0 4 510 528 537 519 511 529 538 520
940 5 2 0 4 511 529 538 520 369 371 372 370
941 5 2 0 4 152 154 40 39 512 530 360 351
942 5 2 0 4 512 530 360 351 513 531 361 352
943 5 2 0 4 513 531 361 352 514 532 362 353
944 5 2 0 4 514 532 362 353 515 533 363 354
945 5 2 0 4 515 533 363 354 516 534 364 355
946 5 2 0 4 516 534 364 355 517 535 365 356
947 5 2 0 4 517 535 365 356 518 536 366 357
948 5 2 0 4 518 536 366 357 519 537 367 358
949 5 2 0 4 519 537 367 358 520 538 368 359
950 5 2 0 4 520 538 368 359 370 372 126 127
951 5 2 0 4 24 5 33 153 204 78 333 521
952 5 2 0 4 204 78 333 521 205 79 334 522
953 5 2 0 4 205 79 334 522 206 80 335 523
954 5 2 0 4 206 80 335 523 207 81 336 524
955 5 2 0 4 207 81 336 524 208 82 337 525
956 5 2 0 4 208 82 337 525 209 83 338 526
957 5 2 0 4 209 83 338 526 210 84 339 527
958 5 2 0 4 210 84 339 527 211 85 340 528
959 5 2 0 4 211 85 340 528 212 86 341 529
960 5 2 0 4 212 86 341 529 48 13 124 371
961 5 2 0 4 153 33 34 154 521 333 342 530
962 5 2 0 4 521 333 342 530 522 334 343 531
963 5 2 0 4 522 334 343 531 523 335 344 532
964 5 2 0 4 523 335 344 532 524 336 345 533
965 5 2 0 4 524 336 345 533 525 337 346 534
966 5 2 0 4 525 337 346 534 526 338 347 535
967 5 2 0 4 526 338 347 535 527 339 348 536
968 5 2 0 4 527 339 348 536 528 340 349 537
969 5 2 0 4 528 340 349 537 529 341 350 538
970 5 2 0 4 529 341 350 538 371 124 125 372
971 5 2 0 4 154 34 9 40 530 342 128 360
972 5 2 0 4 530 342 128 360 531 343 129 361
973 5 2 0 4 531 343 129 361 532 344 130 362
974 5 2 0 4 532 344 130 362 533 345 131 363
975 5 2 0 4 533 345 131 363 534 346 132 364
976 5 2 0 4 534 346 132 364 535 347 133 365
977 5 2 0 4 535 347 133 365 536 348 134 366
978 5 2 0 4 536 348 134 366 537 349 135 367
979 5 2 0 4 537 349 135 367 538 350 136 368
980 5 2 0 4 538 350 136 368 372 125 18 126
981 5 2 0 5 5 25 155 33 78 213 539 333
982 5 2 0 5 78 213 539 333 79 214 540 334
983 5 2 0 5 79 214 540 334 80 215 541 335
984 5 2 0 5 80 215 541 335 81 216 542 336
985 5 2 0 5 81 216 542 336 82 217 543 337
986 5 2 0 5 82 217 543 337 83 218 544 338
987 5 2 0 5 83 218 544 338 84 219 545 339
988 5 2 0 5 84 219 545 339 85 220 546 340
989 5 2 0 5 85 220 546 340 86 221 547 341
990 5 2 0 5 86 221 547 341 13 49 391 124
991 5 2 0 5 33 155 156 34 333 539 548 342
992 5 2 0 5 333 539 548 342 334 540 549 343
993 5 2 0 5 334 540 549 343 335 541 550 344
994 5 2 0 5 335 541 550 344 336 542 551 345
995 5 2 0 5 336 542 551 345 337 543 552 346
996 5 2 0 5 337 543 552 346 338 544 553 347
997 5 2 0 5 338 544 553 347 339 545 554 348
998 5 2 0 5 339 545 554 348 340 546 555 349
999 5 2 0 5 340 546 555 349 341 547 556 350
1000 5 2 0 5 341 547 556 350 124 391 392 125
1001 5 2 0 5 34 156 41 9 342 548 373 128
1002 5 2 0 5 342 548 373 128 343 549 374 129
1003 5 2 0 5 343 549 374 129 344 550 375 130
1004 5 2 0 5 344 550 375 130 345 551 376 131
1005 5 2 0 5 345 551 376 131 346 552 377 132
1006 5 2 0 5 346 552 377 132 347 553 378 133
1007 5 2 0 5 347 553 378 133 348 554 379 134
1008 5 2 0 5 348 554 379 134 349 555 380 135
1009 5 2 0 5 349 555 380 135 350 556 381 136
1010 5 2 0 5 350 556 381 136 125 392 138 18
1011 5 2 0 5 25 26 157 155 213 222 557 539
1012 5 2 0 5 213 222 557 539 214 223 558 540
1013 5 2 0 5 214 223 558 540 215 224 559 541
1014 5 2 0 5 215 224 559 541 216 225 560 542
1015 5 2 0 5 216 225 560 542 217 226 561 543
1016 5 2 0 5 217 226 561 543 218 227 562 544
1017 5 2 0 5 218 227 562 544 219 228 563 545
1018 5 2 0 5 219 228 563 545 220 229 564 546
1019 5 2 0 5 220 229 564 546 221 230 565 547
1020 5 2 0 5 221 230 565 547 49 50 393 391
1021 5 2 0 5 155 157 158 156 539 557 566 548
1022 5 2 0 5 539 557 566 548 540 558 567 549
1023 5 2 0 5 540 558 567 549 541 559 568 550
1024 5 2 0 5 541 559 568 550 542 560 569 551
1025 5 2 0 5 542 560 569 551 543 561 570 552
1026 5 2 0 5 543 561 570 552 544 562 571 553
1027 5 2 0 5 544 562 571 553 545 563 572 554
1028 5 2 0 5 545 563 572 554 546 564 573 555
1029 5 2 0 5 546 564 573 555 547 565 574 556
1030 5 2 0 5 547 565 574 556 391 393 394 392
1031 5 2 0 5 156 158 42 41 548 566 382 373
1032 5 2 0 5 548 566 382 373 549 567 383 374
1033 5 2 0 5 549 567 383 374 550 568 384 375
1034 5 2 0 5 550 568 384 375 551 569 385 376
1035 5 2 0 5 551 569 385 376 552 570 386 377
1036 5 2 0 5 552 570 386 377 553 571 387 378
1037 5 2 0 5 553 571 387 378 554 572 388 379
1038 5 2 0 5 554 572 388 379 555 573 389 380
1039 5 2 0 5 555 573 389 380 556 574 390 381
1040 5 2 0 5 556 574 390 381 392 394 137 138
1041 5 2 0 5 26 2 27 157 222 51 271 557
1042 5 2 0 5 222 51 271 557 223 52 272 558
1043 5 2 0 5 223 52 272 558 224 53 273 559
1044 5 2 0 5 224 53 273 559 225 54 274 560
1045 5 2 0 5 225 54 274 560 226 55 275 561
1046 5 2 0 5 226 55 275 561 227 56 276 562
1047 5 2 0 5 227 56 276 562 228 57 277 563
1048 5 2 0 5 228 57 277 563 229 58 278 564
1049 5 2 0 5 229 58 278 564 230 59 279 565
1050 5 2 0 5 230 59 279 565 50 10 92 393
1051 5 2 0 5 157 27 28 158 557 271 280 566
1052 5 2 0 5 557 271 280 566 558 272 281 567
1053 5 2 0 5 558 272 281 567 559 273 282 568
1054 5 2 0 5 559 273 282 568 560 274 283 569
1055 5 2 0 5 560 274 283 569 561 275 284 570
1056 5 2 0 5 561 275 284 570 562 276 285 571
1057 5 2 0 5 562 276 285 571 563 277 286 572
1058 5 2 0 5 563 277 286 572 564 278 287 573
1059 5 2 0 5 564 278 287 573 565 279 288 574
1060 5 2 0 5 565 279 288 574 393 92 91 394
1061 5 2 0 5 158 28 6 42 566 280 102 382
1062 5 2 0 5 566 280 102 382 567 281 103 383
1063 5 2 0 5 567 281 103 383 568 282 104 384
1064 5 2 0 5 568 282 104 384 569 283 105 385
1065 5 2 0 5 569 283 105 385 570 284 106 386
1066 5 2 0 5 570 284 106 386 571 285 107 387
1067 5 2 0 5 571 285 107 387 572 286 108 388
1068 5 2 0 5 572 286 108 388 573 287 109 389
1069 5 2 0 5 573 287 109 389 574 288 110 390
1070 5 2 0 5 574 288 110 390 394 91 16 137
$EndElements
